# xmcd
#
# Track frame offsets:
#	183
#	12845
#	26495
#	45895
#	60638
#	74880
#	89875
#	106060
#	119453
#	134200
#	147163
#	160613
#	171620
#	189920
#	211783
#	228088
#
# Disc length: 3215
#
# Revision: 1
# Processed by: cddbd v1.5.1PL0 Copyright (c) Steve Scherf et al.
# Submitted via: CDex 1.40Beta8
# Normalized: r0:TDELIM( - )
#
DISCID=e00c8d10
DTITLE=Various Artist - Ich bin Fernfahrer
DYEAR=1900
DGENRE=Country
TTITLE0=Ralf Paulsen - Ich fahr 'nen Supertruck
TTITLE1=Tom Astor - Irgendwo am Horizont
TTITLE2=Dusty Trail - Hey Mann!
TTITLE3=Tom Astor - Geistertruck
TTITLE4=Country Green - Schlaf nicht ein hinter'm Lenkrad
TTITLE5=The Rangers - Amerika
TTITLE6=Buddy Owensboro - Mama, lass deinen Sohn
TTITLE7=Tom Astor - Ausgelaugt
TTITLE8=Tom Astor - Das schöne Mädchen von der Autobahn
TTITLE9=Ralf Paulsen - Liebe heißt den Truck zu teilen
TTITLE10=Charly - Trucker Fieber
TTITLE11=Invitation - Big Mac
TTITLE12=Nashville Studio Band - Jeden Tag das gleiche Spiel
TTITLE13=Tom Astor - Das Diesel-Band
TTITLE14=Buddy Owensboro - Kuckuck
TTITLE15=Tom Astor - Ich bin Fernfahrer
EXTD=ID3G: 2
EXTT0=
EXTT1=
EXTT2=
EXTT3=
EXTT4=
EXTT5=
EXTT6=
EXTT7=
EXTT8=
EXTT9=
EXTT10=
EXTT11=
EXTT12=
EXTT13=
EXTT14=
EXTT15=
PLAYORDER=
